<?xml version="1.0" standalone="no"?>
<!DOCTYPE svg PUBLIC "-//W3C//DTD SVG 20010904//EN"
 "http://www.w3.org/TR/2001/REC-SVG-20010904/DTD/svg10.dtd">
<svg version="1.0" xmlns="http://www.w3.org/2000/svg"
 width="512.000000pt" height="512.000000pt" viewBox="0 0 512.000000 512.000000"
 preserveAspectRatio="xMidYMid meet">

<g transform="translate(0.000000,512.000000) scale(0.100000,-0.100000)"
fill="#000000" stroke="none">
<path d="M2440 4960 c-359 -42 -680 -269 -847 -600 -71 -140 -113 -322 -113
-490 0 -419 234 -800 605 -984 407 -202 896 -126 1219 190 217 212 336 491
336 789 0 292 -103 551 -300 759 -102 107 -184 168 -315 232 -191 93 -383 127
-585 104z m385 -134 c350 -105 607 -380 691 -741 29 -124 25 -339 -9 -466 -79
-299 -293 -550 -565 -663 -153 -64 -190 -71 -387 -71 l-180 0 -110 38 c-60 21
-135 52 -165 69 -249 139 -423 366 -492 644 -30 120 -32 332 -4 449 90 389
376 672 767 760 45 10 108 14 214 11 127 -3 164 -7 240 -30z"/>
<path d="M1261 2570 c-206 -54 -369 -219 -421 -427 -20 -76 -20 -107 -18 -974
l3 -895 27 -41 c14 -22 43 -48 65 -59 37 -18 84 -19 1643 -19 1559 0 1606 1
1643 19 22 11 51 37 65 59 l27 41 3 895 c2 867 2 898 -18 974 -27 107 -80 198
-159 277 -78 77 -160 123 -267 150 -75 19 -114 20 -1298 19 -1174 0 -1224 -1
-1295 -19z m2557 -95 c34 -8 86 -27 114 -41 71 -36 169 -133 207 -204 61 -114
61 -110 61 -1056 0 -856 0 -861 -21 -888 l-20 -26 -1599 0 -1599 0 -20 26
c-21 27 -21 32 -21 893 0 953 -1 936 62 1053 37 69 137 167 209 203 107 55 69
53 1364 54 1026 1 1209 -1 1263 -14z"/>
</g>
</svg>
