<?xml version="1.0" standalone="no"?>
<!DOCTYPE svg PUBLIC "-//W3C//DTD SVG 20010904//EN"
 "http://www.w3.org/TR/2001/REC-SVG-20010904/DTD/svg10.dtd">
<svg version="1.0" xmlns="http://www.w3.org/2000/svg"
 width="512.000000pt" height="512.000000pt" viewBox="0 0 512.000000 512.000000"
 preserveAspectRatio="xMidYMid meet">

<g transform="translate(0.000000,512.000000) scale(0.100000,-0.100000)"
fill="#fff" stroke="none">
<path d="M1400 4210 l0 -910 160 0 160 0 0 750 0 750 1500 0 1500 0 0 -2240 0
-2240 -1500 0 -1500 0 0 750 0 750 -160 0 -160 0 0 -910 0 -910 1820 0 1820 0
0 2560 0 2560 -1820 0 -1820 0 0 -910z"/>
<path d="M2585 3190 l-110 -110 180 -180 180 -180 -1378 0 -1377 0 0 -160 0
-160 1377 0 1378 0 -180 -180 -180 -180 113 -112 112 -113 372 373 373 372
-370 370 c-203 203 -372 370 -375 370 -3 0 -55 -50 -115 -110z"/>
</g>
</svg>
